<mxfile host="app.diagrams.net" modified="2024-05-17T12:36:31.318Z" agent="Mozilla/5.0 (Windows NT 10.0; Win64; x64) AppleWebKit/537.36 (KHTML, like Gecko) Chrome/124.0.0.0 Safari/537.36" etag="MA0kveb7rzWD0fXmVHQg" version="24.4.4" type="github">
  <diagram name="Σελίδα-1" id="ayj_cM682O2Hew3TGInQ">
    <mxGraphModel dx="4412" dy="1930" grid="1" gridSize="10" guides="1" tooltips="1" connect="1" arrows="1" fold="1" page="1" pageScale="1" pageWidth="827" pageHeight="1169" math="0" shadow="0">
      <root>
        <mxCell id="0" />
        <mxCell id="1" parent="0" />
        <mxCell id="bdnJ1DpABbNqV1TkxQLf-2" style="edgeStyle=orthogonalEdgeStyle;rounded=0;orthogonalLoop=1;jettySize=auto;html=1;" parent="1" source="bdnJ1DpABbNqV1TkxQLf-1" target="bdnJ1DpABbNqV1TkxQLf-3" edge="1">
          <mxGeometry relative="1" as="geometry">
            <mxPoint x="260" y="320" as="targetPoint" />
          </mxGeometry>
        </mxCell>
        <mxCell id="bdnJ1DpABbNqV1TkxQLf-1" value="Πελάτης" style="shape=umlActor;verticalLabelPosition=bottom;verticalAlign=top;html=1;" parent="1" vertex="1">
          <mxGeometry x="120" y="290" width="30" height="60" as="geometry" />
        </mxCell>
        <mxCell id="bdnJ1DpABbNqV1TkxQLf-5" style="edgeStyle=orthogonalEdgeStyle;rounded=0;orthogonalLoop=1;jettySize=auto;html=1;" parent="1" source="bdnJ1DpABbNqV1TkxQLf-3" target="bdnJ1DpABbNqV1TkxQLf-6" edge="1">
          <mxGeometry relative="1" as="geometry">
            <mxPoint x="460" y="320" as="targetPoint" />
          </mxGeometry>
        </mxCell>
        <mxCell id="bdnJ1DpABbNqV1TkxQLf-3" value="" style="shape=umlBoundary;whiteSpace=wrap;html=1;" parent="1" vertex="1">
          <mxGeometry x="240" y="280" width="100" height="80" as="geometry" />
        </mxCell>
        <mxCell id="bdnJ1DpABbNqV1TkxQLf-4" value="Αρχική Σελίδα" style="text;html=1;align=center;verticalAlign=middle;resizable=0;points=[];autosize=1;strokeColor=none;fillColor=none;" parent="1" vertex="1">
          <mxGeometry x="250" y="360" width="100" height="30" as="geometry" />
        </mxCell>
        <mxCell id="bdnJ1DpABbNqV1TkxQLf-9" value="" style="edgeStyle=orthogonalEdgeStyle;rounded=0;orthogonalLoop=1;jettySize=auto;html=1;" parent="1" source="bdnJ1DpABbNqV1TkxQLf-6" edge="1">
          <mxGeometry relative="1" as="geometry">
            <mxPoint x="590" y="320" as="targetPoint" />
          </mxGeometry>
        </mxCell>
        <mxCell id="bdnJ1DpABbNqV1TkxQLf-6" value="" style="shape=umlBoundary;whiteSpace=wrap;html=1;" parent="1" vertex="1">
          <mxGeometry x="410" y="280" width="100" height="80" as="geometry" />
        </mxCell>
        <mxCell id="bdnJ1DpABbNqV1TkxQLf-7" value="Σελίδα Κταστημάτων&amp;nbsp;" style="text;html=1;align=center;verticalAlign=middle;resizable=0;points=[];autosize=1;strokeColor=none;fillColor=none;" parent="1" vertex="1">
          <mxGeometry x="390" y="360" width="140" height="30" as="geometry" />
        </mxCell>
        <mxCell id="bdnJ1DpABbNqV1TkxQLf-10" value="Εμφάνιση Υπηρεσιών&lt;div&gt;&lt;br&gt;&lt;/div&gt;" style="text;html=1;align=center;verticalAlign=middle;resizable=0;points=[];autosize=1;strokeColor=none;fillColor=none;" parent="1" vertex="1">
          <mxGeometry x="555" y="360" width="140" height="40" as="geometry" />
        </mxCell>
        <mxCell id="bdnJ1DpABbNqV1TkxQLf-11" value="" style="ellipse;shape=umlControl;whiteSpace=wrap;html=1;" parent="1" vertex="1">
          <mxGeometry x="590" y="280" width="70" height="80" as="geometry" />
        </mxCell>
        <mxCell id="bdnJ1DpABbNqV1TkxQLf-12" value="" style="edgeStyle=none;orthogonalLoop=1;jettySize=auto;html=1;rounded=0;" parent="1" edge="1">
          <mxGeometry width="100" relative="1" as="geometry">
            <mxPoint x="660" y="319.5" as="sourcePoint" />
            <mxPoint x="790" y="320" as="targetPoint" />
            <Array as="points" />
          </mxGeometry>
        </mxCell>
        <mxCell id="bdnJ1DpABbNqV1TkxQLf-14" value="" style="edgeStyle=segmentEdgeStyle;endArrow=classic;html=1;curved=0;rounded=0;endSize=8;startSize=8;sourcePerimeterSpacing=0;targetPerimeterSpacing=0;exitX=0.61;exitY=0.025;exitDx=0;exitDy=0;exitPerimeter=0;entryX=0.59;entryY=-0.037;entryDx=0;entryDy=0;entryPerimeter=0;fillColor=#f8cecc;strokeColor=#b85450;" parent="1" source="bdnJ1DpABbNqV1TkxQLf-17" target="bdnJ1DpABbNqV1TkxQLf-6" edge="1">
          <mxGeometry width="100" relative="1" as="geometry">
            <mxPoint x="550" y="210" as="sourcePoint" />
            <mxPoint x="470" y="230" as="targetPoint" />
            <Array as="points">
              <mxPoint x="851" y="280" />
              <mxPoint x="850" y="280" />
              <mxPoint x="850" y="230" />
              <mxPoint x="469" y="230" />
            </Array>
          </mxGeometry>
        </mxCell>
        <mxCell id="bdnJ1DpABbNqV1TkxQLf-15" value="Απορριψη" style="text;html=1;align=center;verticalAlign=middle;resizable=0;points=[];autosize=1;strokeColor=none;fillColor=none;" parent="1" vertex="1">
          <mxGeometry x="510" y="208" width="80" height="30" as="geometry" />
        </mxCell>
        <mxCell id="bdnJ1DpABbNqV1TkxQLf-16" value="Επιλογή Υπηρεσίας" style="text;html=1;align=center;verticalAlign=middle;resizable=0;points=[];autosize=1;strokeColor=none;fillColor=none;" parent="1" vertex="1">
          <mxGeometry x="890" y="290" width="130" height="30" as="geometry" />
        </mxCell>
        <mxCell id="bdnJ1DpABbNqV1TkxQLf-20" value="" style="edgeStyle=orthogonalEdgeStyle;rounded=0;orthogonalLoop=1;jettySize=auto;html=1;" parent="1" source="bdnJ1DpABbNqV1TkxQLf-17" edge="1">
          <mxGeometry relative="1" as="geometry">
            <mxPoint x="1030" y="320" as="targetPoint" />
          </mxGeometry>
        </mxCell>
        <mxCell id="bdnJ1DpABbNqV1TkxQLf-17" value="" style="shape=umlBoundary;whiteSpace=wrap;html=1;" parent="1" vertex="1">
          <mxGeometry x="790" y="280" width="100" height="80" as="geometry" />
        </mxCell>
        <mxCell id="bdnJ1DpABbNqV1TkxQLf-18" value="Σελίδα υπηρεσιών" style="text;html=1;align=center;verticalAlign=middle;resizable=0;points=[];autosize=1;strokeColor=none;fillColor=none;" parent="1" vertex="1">
          <mxGeometry x="790" y="360" width="120" height="30" as="geometry" />
        </mxCell>
        <mxCell id="bdnJ1DpABbNqV1TkxQLf-21" value="" style="ellipse;shape=umlControl;whiteSpace=wrap;html=1;" parent="1" vertex="1">
          <mxGeometry x="1030" y="280" width="70" height="80" as="geometry" />
        </mxCell>
        <mxCell id="bdnJ1DpABbNqV1TkxQLf-22" value="Εμφάνιση Ραντεβού" style="text;html=1;align=center;verticalAlign=middle;resizable=0;points=[];autosize=1;strokeColor=none;fillColor=none;" parent="1" vertex="1">
          <mxGeometry x="1000" y="360" width="130" height="30" as="geometry" />
        </mxCell>
        <mxCell id="bdnJ1DpABbNqV1TkxQLf-23" value="" style="edgeStyle=segmentEdgeStyle;endArrow=classic;html=1;curved=0;rounded=0;endSize=8;startSize=8;sourcePerimeterSpacing=0;targetPerimeterSpacing=0;exitX=1.014;exitY=0.575;exitDx=0;exitDy=0;exitPerimeter=0;" parent="1" source="bdnJ1DpABbNqV1TkxQLf-21" edge="1">
          <mxGeometry width="100" relative="1" as="geometry">
            <mxPoint x="1150" y="330" as="sourcePoint" />
            <mxPoint x="1200" y="510" as="targetPoint" />
            <Array as="points">
              <mxPoint x="1200" y="326" />
              <mxPoint x="1200" y="370" />
            </Array>
          </mxGeometry>
        </mxCell>
        <mxCell id="bdnJ1DpABbNqV1TkxQLf-27" value="" style="edgeStyle=orthogonalEdgeStyle;rounded=0;orthogonalLoop=1;jettySize=auto;html=1;" parent="1" source="bdnJ1DpABbNqV1TkxQLf-24" edge="1">
          <mxGeometry relative="1" as="geometry">
            <mxPoint x="1010" y="560" as="targetPoint" />
          </mxGeometry>
        </mxCell>
        <mxCell id="bdnJ1DpABbNqV1TkxQLf-24" value="" style="shape=umlBoundary;whiteSpace=wrap;html=1;direction=south;" parent="1" vertex="1">
          <mxGeometry x="1161" y="510" width="80" height="100" as="geometry" />
        </mxCell>
        <mxCell id="bdnJ1DpABbNqV1TkxQLf-25" value="Σελίδα διαθέσιμων ραντεβού" style="text;html=1;align=center;verticalAlign=middle;resizable=0;points=[];autosize=1;strokeColor=none;fillColor=none;" parent="1" vertex="1">
          <mxGeometry x="1111" y="610" width="180" height="30" as="geometry" />
        </mxCell>
        <mxCell id="bdnJ1DpABbNqV1TkxQLf-28" value="Επιλογή ραντεβού" style="text;html=1;align=center;verticalAlign=middle;resizable=0;points=[];autosize=1;strokeColor=none;fillColor=none;" parent="1" vertex="1">
          <mxGeometry x="1020" y="528" width="120" height="30" as="geometry" />
        </mxCell>
        <mxCell id="bdnJ1DpABbNqV1TkxQLf-36" value="" style="edgeStyle=segmentEdgeStyle;endArrow=classic;html=1;curved=0;rounded=0;endSize=8;startSize=8;sourcePerimeterSpacing=0;targetPerimeterSpacing=0;fillColor=#f8cecc;strokeColor=#b85450;" parent="1" edge="1">
          <mxGeometry width="100" relative="1" as="geometry">
            <mxPoint x="1240" y="570" as="sourcePoint" />
            <mxPoint x="470" y="260" as="targetPoint" />
            <Array as="points">
              <mxPoint x="1310" y="570" />
              <mxPoint x="1310" y="130" />
              <mxPoint x="470" y="130" />
            </Array>
          </mxGeometry>
        </mxCell>
        <mxCell id="bdnJ1DpABbNqV1TkxQLf-42" value="Απόρριψη ραντεβού" style="text;html=1;align=center;verticalAlign=middle;resizable=0;points=[];autosize=1;strokeColor=none;fillColor=none;rotation=90;" parent="1" vertex="1">
          <mxGeometry x="1260" y="330" width="130" height="30" as="geometry" />
        </mxCell>
        <mxCell id="bdnJ1DpABbNqV1TkxQLf-52" value="" style="edgeStyle=orthogonalEdgeStyle;rounded=0;orthogonalLoop=1;jettySize=auto;html=1;" parent="1" source="bdnJ1DpABbNqV1TkxQLf-45" target="bdnJ1DpABbNqV1TkxQLf-51" edge="1">
          <mxGeometry relative="1" as="geometry" />
        </mxCell>
        <mxCell id="bdnJ1DpABbNqV1TkxQLf-45" value="" style="ellipse;shape=umlControl;whiteSpace=wrap;html=1;" parent="1" vertex="1">
          <mxGeometry x="940" y="520" width="70" height="80" as="geometry" />
        </mxCell>
        <mxCell id="bdnJ1DpABbNqV1TkxQLf-46" value="Έλεγχος διπλής κρατησης" style="text;html=1;align=center;verticalAlign=middle;resizable=0;points=[];autosize=1;strokeColor=none;fillColor=none;" parent="1" vertex="1">
          <mxGeometry x="895" y="600" width="160" height="30" as="geometry" />
        </mxCell>
        <mxCell id="bdnJ1DpABbNqV1TkxQLf-49" value="" style="edgeStyle=segmentEdgeStyle;endArrow=classic;html=1;curved=0;rounded=0;endSize=8;startSize=8;sourcePerimeterSpacing=0;targetPerimeterSpacing=0;entryX=0;entryY=0.75;entryDx=0;entryDy=0;entryPerimeter=0;fillColor=#f8cecc;strokeColor=#b85450;" parent="1" source="bdnJ1DpABbNqV1TkxQLf-45" target="bdnJ1DpABbNqV1TkxQLf-21" edge="1">
          <mxGeometry width="100" relative="1" as="geometry">
            <mxPoint x="960" y="420" as="sourcePoint" />
            <mxPoint x="1000" y="340" as="targetPoint" />
            <Array as="points">
              <mxPoint x="975" y="340" />
            </Array>
          </mxGeometry>
        </mxCell>
        <mxCell id="bdnJ1DpABbNqV1TkxQLf-50" value="Ναι" style="text;html=1;align=center;verticalAlign=middle;resizable=0;points=[];autosize=1;strokeColor=none;fillColor=none;rotation=90;" parent="1" vertex="1">
          <mxGeometry x="970" y="428" width="40" height="30" as="geometry" />
        </mxCell>
        <mxCell id="bdnJ1DpABbNqV1TkxQLf-57" value="" style="edgeStyle=orthogonalEdgeStyle;rounded=0;orthogonalLoop=1;jettySize=auto;html=1;" parent="1" source="bdnJ1DpABbNqV1TkxQLf-51" target="bdnJ1DpABbNqV1TkxQLf-56" edge="1">
          <mxGeometry relative="1" as="geometry" />
        </mxCell>
        <mxCell id="bdnJ1DpABbNqV1TkxQLf-51" value="" style="ellipse;shape=umlControl;whiteSpace=wrap;html=1;" parent="1" vertex="1">
          <mxGeometry x="790" y="520" width="70" height="80" as="geometry" />
        </mxCell>
        <mxCell id="bdnJ1DpABbNqV1TkxQLf-53" value="Οχι" style="text;html=1;align=center;verticalAlign=middle;resizable=0;points=[];autosize=1;strokeColor=none;fillColor=none;" parent="1" vertex="1">
          <mxGeometry x="880" y="538" width="40" height="30" as="geometry" />
        </mxCell>
        <mxCell id="bdnJ1DpABbNqV1TkxQLf-54" value="Μήνυμα Επιβεβαίωσης" style="text;html=1;align=center;verticalAlign=middle;resizable=0;points=[];autosize=1;strokeColor=none;fillColor=none;" parent="1" vertex="1">
          <mxGeometry x="750" y="600" width="150" height="30" as="geometry" />
        </mxCell>
        <mxCell id="bdnJ1DpABbNqV1TkxQLf-63" value="" style="edgeStyle=orthogonalEdgeStyle;rounded=0;orthogonalLoop=1;jettySize=auto;html=1;" parent="1" source="bdnJ1DpABbNqV1TkxQLf-56" target="bdnJ1DpABbNqV1TkxQLf-62" edge="1">
          <mxGeometry relative="1" as="geometry" />
        </mxCell>
        <mxCell id="bdnJ1DpABbNqV1TkxQLf-56" value="" style="ellipse;shape=umlControl;whiteSpace=wrap;html=1;" parent="1" vertex="1">
          <mxGeometry x="640" y="520" width="70" height="80" as="geometry" />
        </mxCell>
        <mxCell id="bdnJ1DpABbNqV1TkxQLf-58" value="" style="edgeStyle=segmentEdgeStyle;endArrow=classic;html=1;curved=0;rounded=0;endSize=8;startSize=8;sourcePerimeterSpacing=0;targetPerimeterSpacing=0;exitX=0.571;exitY=0;exitDx=0;exitDy=0;exitPerimeter=0;fillColor=#f8cecc;strokeColor=#b85450;" parent="1" source="bdnJ1DpABbNqV1TkxQLf-51" target="bdnJ1DpABbNqV1TkxQLf-10" edge="1">
          <mxGeometry width="100" relative="1" as="geometry">
            <mxPoint x="700" y="430" as="sourcePoint" />
            <mxPoint x="800" y="400" as="targetPoint" />
            <Array as="points">
              <mxPoint x="830" y="430" />
              <mxPoint x="620" y="430" />
            </Array>
          </mxGeometry>
        </mxCell>
        <mxCell id="bdnJ1DpABbNqV1TkxQLf-59" value="Οχι" style="text;html=1;align=center;verticalAlign=middle;resizable=0;points=[];autosize=1;strokeColor=none;fillColor=none;" parent="1" vertex="1">
          <mxGeometry x="730" y="408" width="40" height="30" as="geometry" />
        </mxCell>
        <mxCell id="bdnJ1DpABbNqV1TkxQLf-60" value="Ναι" style="text;html=1;align=center;verticalAlign=middle;resizable=0;points=[];autosize=1;strokeColor=none;fillColor=none;" parent="1" vertex="1">
          <mxGeometry x="730" y="538" width="40" height="30" as="geometry" />
        </mxCell>
        <mxCell id="bdnJ1DpABbNqV1TkxQLf-61" value="Ενημέρωση ημερολογίων" style="text;html=1;align=center;verticalAlign=middle;resizable=0;points=[];autosize=1;strokeColor=none;fillColor=none;" parent="1" vertex="1">
          <mxGeometry x="590" y="598" width="160" height="30" as="geometry" />
        </mxCell>
        <mxCell id="bdnJ1DpABbNqV1TkxQLf-66" value="" style="edgeStyle=orthogonalEdgeStyle;rounded=0;orthogonalLoop=1;jettySize=auto;html=1;" parent="1" source="bdnJ1DpABbNqV1TkxQLf-62" target="bdnJ1DpABbNqV1TkxQLf-65" edge="1">
          <mxGeometry relative="1" as="geometry" />
        </mxCell>
        <mxCell id="bdnJ1DpABbNqV1TkxQLf-62" value="" style="ellipse;shape=umlControl;whiteSpace=wrap;html=1;" parent="1" vertex="1">
          <mxGeometry x="440" y="520" width="70" height="80" as="geometry" />
        </mxCell>
        <mxCell id="bdnJ1DpABbNqV1TkxQLf-64" value="Καταχώρηση στοιχειων πελάτη&lt;div&gt;στο κατάστημα&lt;/div&gt;" style="text;html=1;align=center;verticalAlign=middle;resizable=0;points=[];autosize=1;strokeColor=none;fillColor=none;" parent="1" vertex="1">
          <mxGeometry x="390" y="600" width="190" height="40" as="geometry" />
        </mxCell>
        <mxCell id="bdnJ1DpABbNqV1TkxQLf-70" value="" style="edgeStyle=orthogonalEdgeStyle;rounded=0;orthogonalLoop=1;jettySize=auto;html=1;" parent="1" source="bdnJ1DpABbNqV1TkxQLf-65" target="bdnJ1DpABbNqV1TkxQLf-69" edge="1">
          <mxGeometry relative="1" as="geometry" />
        </mxCell>
        <mxCell id="bdnJ1DpABbNqV1TkxQLf-65" value="" style="ellipse;shape=umlControl;whiteSpace=wrap;html=1;" parent="1" vertex="1">
          <mxGeometry x="250" y="520" width="70" height="80" as="geometry" />
        </mxCell>
        <mxCell id="bdnJ1DpABbNqV1TkxQLf-68" value="Καταχώρηση στοιχείων ραντεβού&lt;div&gt;και στοιχείων καταστήματος&amp;nbsp;&lt;/div&gt;&lt;div&gt;στην σελιδα επερχόμενα ραντεβού&lt;/div&gt;&lt;div&gt;&lt;br&gt;&lt;/div&gt;" style="text;html=1;align=center;verticalAlign=middle;resizable=0;points=[];autosize=1;strokeColor=none;fillColor=none;" parent="1" vertex="1">
          <mxGeometry x="180" y="600" width="210" height="70" as="geometry" />
        </mxCell>
        <mxCell id="bdnJ1DpABbNqV1TkxQLf-73" value="" style="edgeStyle=orthogonalEdgeStyle;rounded=0;orthogonalLoop=1;jettySize=auto;html=1;" parent="1" source="bdnJ1DpABbNqV1TkxQLf-69" target="bdnJ1DpABbNqV1TkxQLf-72" edge="1">
          <mxGeometry relative="1" as="geometry" />
        </mxCell>
        <mxCell id="bdnJ1DpABbNqV1TkxQLf-69" value="" style="ellipse;shape=umlControl;whiteSpace=wrap;html=1;" parent="1" vertex="1">
          <mxGeometry x="50" y="520" width="70" height="80" as="geometry" />
        </mxCell>
        <mxCell id="bdnJ1DpABbNqV1TkxQLf-71" value="Δημιουργια ΕΙδοποιησης;" style="text;html=1;align=center;verticalAlign=middle;resizable=0;points=[];autosize=1;strokeColor=none;fillColor=none;" parent="1" vertex="1">
          <mxGeometry x="20" y="498" width="160" height="30" as="geometry" />
        </mxCell>
        <mxCell id="bdnJ1DpABbNqV1TkxQLf-72" value="" style="ellipse;shape=umlControl;whiteSpace=wrap;html=1;direction=north;" parent="1" vertex="1">
          <mxGeometry x="45" y="685" width="80" height="70" as="geometry" />
        </mxCell>
        <mxCell id="bdnJ1DpABbNqV1TkxQLf-74" value="Ορισμός ώρας&lt;div&gt;&lt;br&gt;&lt;/div&gt;" style="text;html=1;align=center;verticalAlign=middle;resizable=0;points=[];autosize=1;strokeColor=none;fillColor=none;" parent="1" vertex="1">
          <mxGeometry x="45" y="755" width="100" height="40" as="geometry" />
        </mxCell>
        <mxCell id="bdnJ1DpABbNqV1TkxQLf-75" value="" style="edgeStyle=segmentEdgeStyle;endArrow=classic;html=1;curved=0;rounded=0;endSize=8;startSize=8;sourcePerimeterSpacing=0;targetPerimeterSpacing=0;exitX=0.5;exitY=0.063;exitDx=0;exitDy=0;exitPerimeter=0;entryX=0.17;entryY=0.763;entryDx=0;entryDy=0;entryPerimeter=0;" parent="1" source="bdnJ1DpABbNqV1TkxQLf-72" target="bdnJ1DpABbNqV1TkxQLf-3" edge="1">
          <mxGeometry width="100" relative="1" as="geometry">
            <mxPoint x="-10" y="700" as="sourcePoint" />
            <mxPoint x="250" y="350" as="targetPoint" />
            <Array as="points">
              <mxPoint x="-90" y="720" />
              <mxPoint x="-90" y="390" />
              <mxPoint x="251" y="390" />
              <mxPoint x="251" y="341" />
            </Array>
          </mxGeometry>
        </mxCell>
        <mxCell id="bdnJ1DpABbNqV1TkxQLf-76" value="" style="edgeStyle=segmentEdgeStyle;endArrow=classic;html=1;curved=0;rounded=0;endSize=8;startSize=8;sourcePerimeterSpacing=0;targetPerimeterSpacing=0;exitX=0.375;exitY=0;exitDx=0;exitDy=0;exitPerimeter=0;fillColor=#f8cecc;strokeColor=#b85450;" parent="1" source="bdnJ1DpABbNqV1TkxQLf-71" target="bdnJ1DpABbNqV1TkxQLf-4" edge="1">
          <mxGeometry width="100" relative="1" as="geometry">
            <mxPoint x="80" y="470" as="sourcePoint" />
            <mxPoint x="320" y="400" as="targetPoint" />
            <Array as="points">
              <mxPoint x="80" y="470" />
              <mxPoint x="300" y="470" />
            </Array>
          </mxGeometry>
        </mxCell>
        <mxCell id="bdnJ1DpABbNqV1TkxQLf-77" value="όχι" style="text;html=1;align=center;verticalAlign=middle;resizable=0;points=[];autosize=1;strokeColor=none;fillColor=none;" parent="1" vertex="1">
          <mxGeometry x="150" y="448" width="40" height="30" as="geometry" />
        </mxCell>
        <mxCell id="bdnJ1DpABbNqV1TkxQLf-78" value="ναι&lt;div&gt;&lt;br&gt;&lt;/div&gt;" style="text;html=1;align=center;verticalAlign=middle;resizable=0;points=[];autosize=1;strokeColor=none;fillColor=none;rotation=90;" parent="1" vertex="1">
          <mxGeometry x="65" y="620" width="40" height="40" as="geometry" />
        </mxCell>
        <mxCell id="bdnJ1DpABbNqV1TkxQLf-80" value="" style="shape=umlLifeline;perimeter=lifelinePerimeter;whiteSpace=wrap;html=1;container=1;dropTarget=0;collapsible=0;recursiveResize=0;outlineConnect=0;portConstraint=eastwest;newEdgeStyle={&quot;curved&quot;:0,&quot;rounded&quot;:0};participant=umlActor;" parent="1" vertex="1">
          <mxGeometry x="-90" y="1020" width="20" height="310" as="geometry" />
        </mxCell>
        <mxCell id="bdnJ1DpABbNqV1TkxQLf-81" value="" style="html=1;points=[[0,0,0,0,5],[0,1,0,0,-5],[1,0,0,0,5],[1,1,0,0,-5]];perimeter=orthogonalPerimeter;outlineConnect=0;targetShapes=umlLifeline;portConstraint=eastwest;newEdgeStyle={&quot;curved&quot;:0,&quot;rounded&quot;:0};fillColor=#1ba1e2;strokeColor=#006EAF;fontColor=#ffffff;" parent="bdnJ1DpABbNqV1TkxQLf-80" vertex="1">
          <mxGeometry x="5" y="60" width="10" height="250" as="geometry" />
        </mxCell>
        <mxCell id="bdnJ1DpABbNqV1TkxQLf-84" value="Σελίδα Καταστημάτων" style="shape=umlLifeline;perimeter=lifelinePerimeter;whiteSpace=wrap;html=1;container=1;dropTarget=0;collapsible=0;recursiveResize=0;outlineConnect=0;portConstraint=eastwest;newEdgeStyle={&quot;curved&quot;:0,&quot;rounded&quot;:0};fillColor=#1ba1e2;fontColor=#ffffff;strokeColor=#006EAF;" parent="1" vertex="1">
          <mxGeometry x="270" y="1020" width="100" height="560" as="geometry" />
        </mxCell>
        <mxCell id="bdnJ1DpABbNqV1TkxQLf-90" value="" style="html=1;points=[[0,0,0,0,5],[0,1,0,0,-5],[1,0,0,0,5],[1,1,0,0,-5]];perimeter=orthogonalPerimeter;outlineConnect=0;targetShapes=umlLifeline;portConstraint=eastwest;newEdgeStyle={&quot;curved&quot;:0,&quot;rounded&quot;:0};fillColor=#1ba1e2;fontColor=#ffffff;strokeColor=#006EAF;" parent="bdnJ1DpABbNqV1TkxQLf-84" vertex="1">
          <mxGeometry x="45" y="80" width="10" height="480" as="geometry" />
        </mxCell>
        <mxCell id="bdnJ1DpABbNqV1TkxQLf-85" value="Σελίδα Υπηρεσιών" style="shape=umlLifeline;perimeter=lifelinePerimeter;whiteSpace=wrap;html=1;container=1;dropTarget=0;collapsible=0;recursiveResize=0;outlineConnect=0;portConstraint=eastwest;newEdgeStyle={&quot;curved&quot;:0,&quot;rounded&quot;:0};fillColor=#1ba1e2;fontColor=#ffffff;strokeColor=#006EAF;" parent="1" vertex="1">
          <mxGeometry x="510" y="1020" width="100" height="590" as="geometry" />
        </mxCell>
        <mxCell id="bdnJ1DpABbNqV1TkxQLf-91" value="" style="html=1;points=[[0,0,0,0,5],[0,1,0,0,-5],[1,0,0,0,5],[1,1,0,0,-5]];perimeter=orthogonalPerimeter;outlineConnect=0;targetShapes=umlLifeline;portConstraint=eastwest;newEdgeStyle={&quot;curved&quot;:0,&quot;rounded&quot;:0};fillColor=#1ba1e2;fontColor=#ffffff;strokeColor=#006EAF;" parent="bdnJ1DpABbNqV1TkxQLf-85" vertex="1">
          <mxGeometry x="45" y="90" width="10" height="500" as="geometry" />
        </mxCell>
        <mxCell id="bdnJ1DpABbNqV1TkxQLf-87" value="Σελίδα Διαθέσιμων Ραντεβού" style="shape=umlLifeline;perimeter=lifelinePerimeter;whiteSpace=wrap;html=1;container=1;dropTarget=0;collapsible=0;recursiveResize=0;outlineConnect=0;portConstraint=eastwest;newEdgeStyle={&quot;curved&quot;:0,&quot;rounded&quot;:0};fillColor=#1ba1e2;fontColor=#ffffff;strokeColor=#006EAF;" parent="1" vertex="1">
          <mxGeometry x="760" y="1020" width="100" height="870" as="geometry" />
        </mxCell>
        <mxCell id="bdnJ1DpABbNqV1TkxQLf-92" value="" style="html=1;points=[[0,0,0,0,5],[0,1,0,0,-5],[1,0,0,0,5],[1,1,0,0,-5]];perimeter=orthogonalPerimeter;outlineConnect=0;targetShapes=umlLifeline;portConstraint=eastwest;newEdgeStyle={&quot;curved&quot;:0,&quot;rounded&quot;:0};fillColor=#1ba1e2;fontColor=#ffffff;strokeColor=#006EAF;" parent="bdnJ1DpABbNqV1TkxQLf-87" vertex="1">
          <mxGeometry x="45" y="210" width="10" height="660" as="geometry" />
        </mxCell>
        <mxCell id="bdnJ1DpABbNqV1TkxQLf-132" value="" style="html=1;points=[[0,0,0,0,5],[0,1,0,0,-5],[1,0,0,0,5],[1,1,0,0,-5]];perimeter=orthogonalPerimeter;outlineConnect=0;targetShapes=umlLifeline;portConstraint=eastwest;newEdgeStyle={&quot;curved&quot;:0,&quot;rounded&quot;:0};fillColor=#1ba1e2;fontColor=#ffffff;strokeColor=#000000;" parent="bdnJ1DpABbNqV1TkxQLf-87" vertex="1">
          <mxGeometry x="40" y="500" width="20" height="30" as="geometry" />
        </mxCell>
        <mxCell id="bdnJ1DpABbNqV1TkxQLf-88" value="Αρχική Σελίδα" style="shape=umlLifeline;perimeter=lifelinePerimeter;whiteSpace=wrap;html=1;container=1;dropTarget=0;collapsible=0;recursiveResize=0;outlineConnect=0;portConstraint=eastwest;newEdgeStyle={&quot;curved&quot;:0,&quot;rounded&quot;:0};fillColor=#1ba1e2;fontColor=#ffffff;strokeColor=#006EAF;" parent="1" vertex="1">
          <mxGeometry x="40" y="1020" width="100" height="840" as="geometry" />
        </mxCell>
        <mxCell id="bdnJ1DpABbNqV1TkxQLf-89" value="" style="html=1;points=[[0,0,0,0,5],[0,1,0,0,-5],[1,0,0,0,5],[1,1,0,0,-5]];perimeter=orthogonalPerimeter;outlineConnect=0;targetShapes=umlLifeline;portConstraint=eastwest;newEdgeStyle={&quot;curved&quot;:0,&quot;rounded&quot;:0};fillColor=#1ba1e2;fontColor=#ffffff;strokeColor=#006EAF;" parent="bdnJ1DpABbNqV1TkxQLf-88" vertex="1">
          <mxGeometry x="45" y="80" width="10" height="760" as="geometry" />
        </mxCell>
        <mxCell id="bdnJ1DpABbNqV1TkxQLf-93" value="" style="edgeStyle=none;orthogonalLoop=1;jettySize=auto;html=1;rounded=0;" parent="1" edge="1">
          <mxGeometry width="100" relative="1" as="geometry">
            <mxPoint x="-70" y="1140" as="sourcePoint" />
            <mxPoint x="80" y="1140" as="targetPoint" />
            <Array as="points" />
          </mxGeometry>
        </mxCell>
        <mxCell id="bdnJ1DpABbNqV1TkxQLf-94" value="showMenu()" style="text;html=1;align=center;verticalAlign=middle;resizable=0;points=[];autosize=1;strokeColor=none;fillColor=none;" parent="1" vertex="1">
          <mxGeometry x="-50" y="1108" width="90" height="30" as="geometry" />
        </mxCell>
        <mxCell id="bdnJ1DpABbNqV1TkxQLf-96" value="" style="edgeStyle=none;orthogonalLoop=1;jettySize=auto;html=1;rounded=0;" parent="1" edge="1">
          <mxGeometry width="100" relative="1" as="geometry">
            <mxPoint x="99.66352941176532" y="1138" as="sourcePoint" />
            <mxPoint x="310" y="1138" as="targetPoint" />
            <Array as="points">
              <mxPoint x="180.34" y="1138" />
            </Array>
          </mxGeometry>
        </mxCell>
        <mxCell id="bdnJ1DpABbNqV1TkxQLf-97" value="showShop()" style="text;html=1;align=center;verticalAlign=middle;resizable=0;points=[];autosize=1;strokeColor=none;fillColor=none;" parent="1" vertex="1">
          <mxGeometry x="145" y="1108" width="90" height="30" as="geometry" />
        </mxCell>
        <mxCell id="bdnJ1DpABbNqV1TkxQLf-98" value="" style="edgeStyle=none;orthogonalLoop=1;jettySize=auto;html=1;rounded=0;" parent="1" edge="1">
          <mxGeometry width="100" relative="1" as="geometry">
            <mxPoint x="330" y="1138" as="sourcePoint" />
            <mxPoint x="550" y="1138" as="targetPoint" />
            <Array as="points" />
          </mxGeometry>
        </mxCell>
        <mxCell id="bdnJ1DpABbNqV1TkxQLf-99" value="chooseShop()" style="text;html=1;align=center;verticalAlign=middle;resizable=0;points=[];autosize=1;strokeColor=none;fillColor=none;" parent="1" vertex="1">
          <mxGeometry x="370" y="1108" width="100" height="30" as="geometry" />
        </mxCell>
        <mxCell id="bdnJ1DpABbNqV1TkxQLf-103" value="chooseService()" style="html=1;align=left;spacingLeft=2;endArrow=block;rounded=0;edgeStyle=orthogonalEdgeStyle;curved=0;rounded=0;" parent="1" edge="1">
          <mxGeometry x="-0.0035" relative="1" as="geometry">
            <mxPoint x="570" y="1160" as="sourcePoint" />
            <Array as="points">
              <mxPoint x="600" y="1190" />
            </Array>
            <mxPoint x="575" y="1190" as="targetPoint" />
            <mxPoint as="offset" />
          </mxGeometry>
        </mxCell>
        <mxCell id="bdnJ1DpABbNqV1TkxQLf-104" value="" style="edgeStyle=none;orthogonalLoop=1;jettySize=auto;html=1;rounded=0;" parent="1" edge="1">
          <mxGeometry width="100" relative="1" as="geometry">
            <mxPoint x="570" y="1248" as="sourcePoint" />
            <mxPoint x="800" y="1248" as="targetPoint" />
            <Array as="points">
              <mxPoint x="670" y="1248" />
            </Array>
          </mxGeometry>
        </mxCell>
        <mxCell id="bdnJ1DpABbNqV1TkxQLf-105" value="showAvailableReservation()" style="text;html=1;align=center;verticalAlign=middle;resizable=0;points=[];autosize=1;strokeColor=none;fillColor=none;" parent="1" vertex="1">
          <mxGeometry x="585" y="1218" width="170" height="30" as="geometry" />
        </mxCell>
        <mxCell id="bdnJ1DpABbNqV1TkxQLf-107" value="selectReservation()" style="html=1;align=left;spacingLeft=2;endArrow=block;rounded=0;edgeStyle=orthogonalEdgeStyle;curved=0;rounded=0;" parent="1" edge="1">
          <mxGeometry relative="1" as="geometry">
            <mxPoint x="820" y="1360" as="sourcePoint" />
            <Array as="points">
              <mxPoint x="850" y="1390" />
            </Array>
            <mxPoint x="825" y="1390" as="targetPoint" />
          </mxGeometry>
        </mxCell>
        <mxCell id="bdnJ1DpABbNqV1TkxQLf-108" value="" style="edgeStyle=none;orthogonalLoop=1;jettySize=auto;html=1;rounded=0;fillColor=#a20025;strokeColor=#FF0000;dashed=1;" parent="1" edge="1">
          <mxGeometry width="100" relative="1" as="geometry">
            <mxPoint x="555.0000000000001" y="1190" as="sourcePoint" />
            <mxPoint x="330" y="1190" as="targetPoint" />
            <Array as="points" />
          </mxGeometry>
        </mxCell>
        <mxCell id="bdnJ1DpABbNqV1TkxQLf-109" value="return()" style="text;html=1;align=center;verticalAlign=middle;resizable=0;points=[];autosize=1;strokeColor=none;fillColor=none;" parent="1" vertex="1">
          <mxGeometry x="380" y="1188" width="60" height="30" as="geometry" />
        </mxCell>
        <mxCell id="bdnJ1DpABbNqV1TkxQLf-110" value="" style="edgeStyle=none;orthogonalLoop=1;jettySize=auto;html=1;rounded=0;dashed=1;fillColor=#a20025;strokeColor=#FA0000;" parent="1" edge="1">
          <mxGeometry width="100" relative="1" as="geometry">
            <mxPoint x="795.34" y="1380" as="sourcePoint" />
            <mxPoint x="324.66" y="1380" as="targetPoint" />
            <Array as="points" />
          </mxGeometry>
        </mxCell>
        <mxCell id="bdnJ1DpABbNqV1TkxQLf-111" value="return()" style="text;html=1;align=center;verticalAlign=middle;resizable=0;points=[];autosize=1;strokeColor=none;fillColor=none;" parent="1" vertex="1">
          <mxGeometry x="495" y="1350" width="60" height="30" as="geometry" />
        </mxCell>
        <mxCell id="bdnJ1DpABbNqV1TkxQLf-115" value="" style="edgeStyle=none;orthogonalLoop=1;jettySize=auto;html=1;rounded=0;strokeColor=#FA0000;dashed=1;" parent="1" edge="1">
          <mxGeometry width="100" relative="1" as="geometry">
            <mxPoint x="800" y="1280" as="sourcePoint" />
            <mxPoint x="330" y="1280" as="targetPoint" />
            <Array as="points" />
          </mxGeometry>
        </mxCell>
        <mxCell id="bdnJ1DpABbNqV1TkxQLf-116" value="return()" style="text;html=1;align=center;verticalAlign=middle;resizable=0;points=[];autosize=1;strokeColor=none;fillColor=none;" parent="1" vertex="1">
          <mxGeometry x="455" y="1248" width="60" height="30" as="geometry" />
        </mxCell>
        <mxCell id="bdnJ1DpABbNqV1TkxQLf-129" value="checkAvailability()" style="html=1;align=left;spacingLeft=2;endArrow=block;rounded=0;edgeStyle=orthogonalEdgeStyle;curved=0;rounded=0;" parent="1" edge="1">
          <mxGeometry x="-0.0035" relative="1" as="geometry">
            <mxPoint x="820" y="1440" as="sourcePoint" />
            <Array as="points">
              <mxPoint x="850" y="1470" />
            </Array>
            <mxPoint x="825" y="1470.0000000000005" as="targetPoint" />
            <mxPoint as="offset" />
          </mxGeometry>
        </mxCell>
        <mxCell id="bdnJ1DpABbNqV1TkxQLf-131" value="availabilityMessage()" style="html=1;align=left;spacingLeft=2;endArrow=block;rounded=0;edgeStyle=orthogonalEdgeStyle;curved=0;rounded=0;" parent="1" edge="1">
          <mxGeometry relative="1" as="geometry">
            <mxPoint x="820" y="1500" as="sourcePoint" />
            <Array as="points">
              <mxPoint x="850" y="1530" />
            </Array>
            <mxPoint x="825" y="1530.0000000000005" as="targetPoint" />
          </mxGeometry>
        </mxCell>
        <mxCell id="bdnJ1DpABbNqV1TkxQLf-133" value="" style="edgeStyle=none;orthogonalLoop=1;jettySize=auto;html=1;rounded=0;strokeColor=#FA0000;dashed=1;" parent="1" edge="1">
          <mxGeometry width="100" relative="1" as="geometry">
            <mxPoint x="800" y="1560" as="sourcePoint" />
            <mxPoint x="570" y="1560" as="targetPoint" />
            <Array as="points" />
          </mxGeometry>
        </mxCell>
        <mxCell id="bdnJ1DpABbNqV1TkxQLf-134" value="return()" style="text;html=1;align=center;verticalAlign=middle;resizable=0;points=[];autosize=1;strokeColor=none;fillColor=none;" parent="1" vertex="1">
          <mxGeometry x="645" y="1530" width="60" height="30" as="geometry" />
        </mxCell>
        <mxCell id="bdnJ1DpABbNqV1TkxQLf-137" value="confirmReservation()" style="html=1;align=left;spacingLeft=2;endArrow=block;rounded=0;edgeStyle=orthogonalEdgeStyle;curved=0;rounded=0;" parent="1" edge="1">
          <mxGeometry relative="1" as="geometry">
            <mxPoint x="820" y="1600" as="sourcePoint" />
            <Array as="points">
              <mxPoint x="850" y="1630" />
            </Array>
            <mxPoint x="825" y="1630" as="targetPoint" />
          </mxGeometry>
        </mxCell>
        <mxCell id="bdnJ1DpABbNqV1TkxQLf-139" value="updateCalendars()" style="html=1;align=left;spacingLeft=2;endArrow=block;rounded=0;edgeStyle=orthogonalEdgeStyle;curved=0;rounded=0;" parent="1" edge="1">
          <mxGeometry relative="1" as="geometry">
            <mxPoint x="820" y="1670" as="sourcePoint" />
            <Array as="points">
              <mxPoint x="850" y="1700" />
            </Array>
            <mxPoint x="825" y="1700" as="targetPoint" />
          </mxGeometry>
        </mxCell>
        <mxCell id="bdnJ1DpABbNqV1TkxQLf-141" value="" style="html=1;align=left;spacingLeft=2;endArrow=block;rounded=0;edgeStyle=orthogonalEdgeStyle;curved=0;rounded=0;" parent="1" edge="1">
          <mxGeometry relative="1" as="geometry">
            <mxPoint x="820" y="1738" as="sourcePoint" />
            <Array as="points">
              <mxPoint x="850" y="1768" />
            </Array>
            <mxPoint x="825" y="1768.0000000000005" as="targetPoint" />
          </mxGeometry>
        </mxCell>
        <mxCell id="bdnJ1DpABbNqV1TkxQLf-142" value="setCustomerDetails()" style="text;html=1;align=center;verticalAlign=middle;resizable=0;points=[];autosize=1;strokeColor=none;fillColor=none;" parent="1" vertex="1">
          <mxGeometry x="840" y="1739" width="140" height="30" as="geometry" />
        </mxCell>
        <mxCell id="bdnJ1DpABbNqV1TkxQLf-144" value="setReminder()" style="html=1;align=left;spacingLeft=2;endArrow=block;rounded=0;edgeStyle=orthogonalEdgeStyle;curved=0;rounded=0;" parent="1" edge="1">
          <mxGeometry relative="1" as="geometry">
            <mxPoint x="820" y="1800" as="sourcePoint" />
            <Array as="points">
              <mxPoint x="850" y="1830" />
            </Array>
            <mxPoint x="825" y="1830.0000000000005" as="targetPoint" />
          </mxGeometry>
        </mxCell>
        <mxCell id="bdnJ1DpABbNqV1TkxQLf-145" value="" style="edgeStyle=none;orthogonalLoop=1;jettySize=auto;html=1;rounded=0;dashed=1;strokeColor=#FA0000;" parent="1" edge="1">
          <mxGeometry width="100" relative="1" as="geometry">
            <mxPoint x="800" y="1830" as="sourcePoint" />
            <mxPoint x="100" y="1830" as="targetPoint" />
            <Array as="points" />
          </mxGeometry>
        </mxCell>
        <mxCell id="bdnJ1DpABbNqV1TkxQLf-146" value="return()" style="text;html=1;align=center;verticalAlign=middle;resizable=0;points=[];autosize=1;strokeColor=none;fillColor=none;" parent="1" vertex="1">
          <mxGeometry x="410" y="1800" width="60" height="30" as="geometry" />
        </mxCell>
        <mxCell id="bdnJ1DpABbNqV1TkxQLf-147" value="loop" style="shape=umlFrame;whiteSpace=wrap;html=1;pointerEvents=0;" parent="1" vertex="1">
          <mxGeometry x="310" y="1320" width="700" height="260" as="geometry" />
        </mxCell>
        <mxCell id="bdnJ1DpABbNqV1TkxQLf-152" style="edgeStyle=orthogonalEdgeStyle;rounded=0;orthogonalLoop=1;jettySize=auto;html=1;" parent="1" source="bdnJ1DpABbNqV1TkxQLf-148" edge="1">
          <mxGeometry relative="1" as="geometry">
            <mxPoint x="2100" y="370" as="targetPoint" />
          </mxGeometry>
        </mxCell>
        <mxCell id="bdnJ1DpABbNqV1TkxQLf-148" value="Πελάτης" style="shape=umlActor;verticalLabelPosition=bottom;verticalAlign=top;html=1;" parent="1" vertex="1">
          <mxGeometry x="1960" y="340" width="30" height="60" as="geometry" />
        </mxCell>
        <mxCell id="bdnJ1DpABbNqV1TkxQLf-155" style="edgeStyle=orthogonalEdgeStyle;rounded=0;orthogonalLoop=1;jettySize=auto;html=1;" parent="1" source="bdnJ1DpABbNqV1TkxQLf-153" edge="1">
          <mxGeometry relative="1" as="geometry">
            <mxPoint x="2320" y="370" as="targetPoint" />
          </mxGeometry>
        </mxCell>
        <mxCell id="bdnJ1DpABbNqV1TkxQLf-153" value="" style="shape=umlBoundary;whiteSpace=wrap;html=1;" parent="1" vertex="1">
          <mxGeometry x="2100" y="330" width="100" height="80" as="geometry" />
        </mxCell>
        <mxCell id="bdnJ1DpABbNqV1TkxQLf-154" value="Αρχική σελίδα" style="text;html=1;align=center;verticalAlign=middle;resizable=0;points=[];autosize=1;strokeColor=none;fillColor=none;" parent="1" vertex="1">
          <mxGeometry x="2110" y="408" width="100" height="30" as="geometry" />
        </mxCell>
        <mxCell id="bdnJ1DpABbNqV1TkxQLf-158" style="edgeStyle=orthogonalEdgeStyle;rounded=0;orthogonalLoop=1;jettySize=auto;html=1;" parent="1" source="bdnJ1DpABbNqV1TkxQLf-156" target="bdnJ1DpABbNqV1TkxQLf-159" edge="1">
          <mxGeometry relative="1" as="geometry">
            <mxPoint x="2486.95652173913" y="500" as="targetPoint" />
          </mxGeometry>
        </mxCell>
        <mxCell id="bdnJ1DpABbNqV1TkxQLf-156" value="" style="shape=umlBoundary;whiteSpace=wrap;html=1;" parent="1" vertex="1">
          <mxGeometry x="2320" y="330" width="100" height="80" as="geometry" />
        </mxCell>
        <mxCell id="bdnJ1DpABbNqV1TkxQLf-157" value="Σελίδα καταστημάτων" style="text;html=1;align=center;verticalAlign=middle;resizable=0;points=[];autosize=1;strokeColor=none;fillColor=none;" parent="1" vertex="1">
          <mxGeometry x="2310" y="408" width="140" height="30" as="geometry" />
        </mxCell>
        <mxCell id="bdnJ1DpABbNqV1TkxQLf-159" value="" style="ellipse;shape=umlControl;whiteSpace=wrap;html=1;" parent="1" vertex="1">
          <mxGeometry x="2451.95652173913" y="460" width="70" height="80" as="geometry" />
        </mxCell>
        <mxCell id="bdnJ1DpABbNqV1TkxQLf-160" value="Επιλογή καταστήματος" style="text;html=1;align=center;verticalAlign=middle;resizable=0;points=[];autosize=1;strokeColor=none;fillColor=none;" parent="1" vertex="1">
          <mxGeometry x="2416.96" y="538" width="140" height="30" as="geometry" />
        </mxCell>
        <mxCell id="bdnJ1DpABbNqV1TkxQLf-162" value="" style="edgeStyle=segmentEdgeStyle;endArrow=classic;html=1;curved=0;rounded=0;endSize=8;startSize=8;sourcePerimeterSpacing=0;targetPerimeterSpacing=0;exitX=0.481;exitY=1.142;exitDx=0;exitDy=0;exitPerimeter=0;" parent="1" edge="1">
          <mxGeometry width="100" relative="1" as="geometry">
            <mxPoint x="2485.3" y="562.26" as="sourcePoint" />
            <mxPoint x="2485" y="680" as="targetPoint" />
            <Array as="points">
              <mxPoint x="2485" y="570" />
              <mxPoint x="2485" y="660" />
            </Array>
          </mxGeometry>
        </mxCell>
        <mxCell id="bdnJ1DpABbNqV1TkxQLf-165" style="edgeStyle=orthogonalEdgeStyle;rounded=0;orthogonalLoop=1;jettySize=auto;html=1;" parent="1" source="bdnJ1DpABbNqV1TkxQLf-163" target="bdnJ1DpABbNqV1TkxQLf-166" edge="1">
          <mxGeometry relative="1" as="geometry">
            <mxPoint x="2339.9999999999995" y="730" as="targetPoint" />
          </mxGeometry>
        </mxCell>
        <mxCell id="bdnJ1DpABbNqV1TkxQLf-163" value="" style="shape=umlBoundary;whiteSpace=wrap;html=1;rotation=90;" parent="1" vertex="1">
          <mxGeometry x="2436.96" y="690" width="100" height="80" as="geometry" />
        </mxCell>
        <mxCell id="bdnJ1DpABbNqV1TkxQLf-164" value="Προφίλ καταστήματος" style="text;html=1;align=center;verticalAlign=middle;resizable=0;points=[];autosize=1;strokeColor=none;fillColor=none;" parent="1" vertex="1">
          <mxGeometry x="2416.96" y="780" width="140" height="30" as="geometry" />
        </mxCell>
        <mxCell id="bdnJ1DpABbNqV1TkxQLf-168" style="edgeStyle=orthogonalEdgeStyle;rounded=0;orthogonalLoop=1;jettySize=auto;html=1;" parent="1" source="bdnJ1DpABbNqV1TkxQLf-166" target="bdnJ1DpABbNqV1TkxQLf-169" edge="1">
          <mxGeometry relative="1" as="geometry">
            <mxPoint x="2170" y="730" as="targetPoint" />
          </mxGeometry>
        </mxCell>
        <mxCell id="bdnJ1DpABbNqV1TkxQLf-166" value="" style="ellipse;shape=umlControl;whiteSpace=wrap;html=1;" parent="1" vertex="1">
          <mxGeometry x="2279.9999999999995" y="690" width="70" height="80" as="geometry" />
        </mxCell>
        <mxCell id="bdnJ1DpABbNqV1TkxQLf-167" value="Προσθήκη στα αγαπημένα" style="text;html=1;align=center;verticalAlign=middle;resizable=0;points=[];autosize=1;strokeColor=none;fillColor=none;" parent="1" vertex="1">
          <mxGeometry x="2235" y="770" width="160" height="30" as="geometry" />
        </mxCell>
        <mxCell id="bdnJ1DpABbNqV1TkxQLf-171" style="edgeStyle=orthogonalEdgeStyle;rounded=0;orthogonalLoop=1;jettySize=auto;html=1;strokeColor=#FA0000;" parent="1" target="bdnJ1DpABbNqV1TkxQLf-157" edge="1">
          <mxGeometry relative="1" as="geometry">
            <mxPoint x="2309.9999999999995" y="438.0000000000001" as="targetPoint" />
            <mxPoint x="2150.5600000000004" y="691.35" as="sourcePoint" />
            <Array as="points">
              <mxPoint x="2151" y="602" />
              <mxPoint x="2370" y="602" />
            </Array>
          </mxGeometry>
        </mxCell>
        <mxCell id="bdnJ1DpABbNqV1TkxQLf-173" style="edgeStyle=orthogonalEdgeStyle;rounded=0;orthogonalLoop=1;jettySize=auto;html=1;" parent="1" source="bdnJ1DpABbNqV1TkxQLf-169" target="bdnJ1DpABbNqV1TkxQLf-175" edge="1">
          <mxGeometry relative="1" as="geometry">
            <mxPoint x="1990" y="730" as="targetPoint" />
          </mxGeometry>
        </mxCell>
        <mxCell id="bdnJ1DpABbNqV1TkxQLf-169" value="" style="ellipse;shape=umlControl;whiteSpace=wrap;html=1;" parent="1" vertex="1">
          <mxGeometry x="2115" y="690" width="70" height="80" as="geometry" />
        </mxCell>
        <mxCell id="bdnJ1DpABbNqV1TkxQLf-170" value="Μήνυμα επιβεβαίωσης" style="text;html=1;align=center;verticalAlign=middle;resizable=0;points=[];autosize=1;strokeColor=none;fillColor=none;" parent="1" vertex="1">
          <mxGeometry x="2080" y="768" width="140" height="30" as="geometry" />
        </mxCell>
        <mxCell id="bdnJ1DpABbNqV1TkxQLf-172" value="Όχι" style="text;html=1;align=center;verticalAlign=middle;resizable=0;points=[];autosize=1;strokeColor=none;fillColor=none;" parent="1" vertex="1">
          <mxGeometry x="2235" y="570" width="40" height="30" as="geometry" />
        </mxCell>
        <mxCell id="bdnJ1DpABbNqV1TkxQLf-174" value="&lt;span style=&quot;white-space: pre;&quot;&gt;&#x9;&lt;/span&gt;Ναι" style="text;html=1;align=center;verticalAlign=middle;resizable=0;points=[];autosize=1;strokeColor=none;fillColor=none;" parent="1" vertex="1">
          <mxGeometry x="2010" y="705" width="70" height="30" as="geometry" />
        </mxCell>
        <mxCell id="bdnJ1DpABbNqV1TkxQLf-177" style="edgeStyle=orthogonalEdgeStyle;rounded=0;orthogonalLoop=1;jettySize=auto;html=1;" parent="1" source="bdnJ1DpABbNqV1TkxQLf-175" target="bdnJ1DpABbNqV1TkxQLf-178" edge="1">
          <mxGeometry relative="1" as="geometry">
            <mxPoint x="1990" y="620" as="targetPoint" />
          </mxGeometry>
        </mxCell>
        <mxCell id="bdnJ1DpABbNqV1TkxQLf-175" value="" style="ellipse;shape=umlControl;whiteSpace=wrap;html=1;" parent="1" vertex="1">
          <mxGeometry x="1955" y="690" width="70" height="80" as="geometry" />
        </mxCell>
        <mxCell id="bdnJ1DpABbNqV1TkxQLf-176" value="Ενημέρωση λίστας" style="text;html=1;align=center;verticalAlign=middle;resizable=0;points=[];autosize=1;strokeColor=none;fillColor=none;" parent="1" vertex="1">
          <mxGeometry x="1930" y="770" width="120" height="30" as="geometry" />
        </mxCell>
        <mxCell id="bdnJ1DpABbNqV1TkxQLf-178" value="" style="ellipse;shape=umlControl;whiteSpace=wrap;html=1;" parent="1" vertex="1">
          <mxGeometry x="1955" y="545" width="70" height="80" as="geometry" />
        </mxCell>
        <mxCell id="bdnJ1DpABbNqV1TkxQLf-179" value="Επιτυχείς προσθήκη αγαπημένου" style="text;html=1;align=center;verticalAlign=middle;resizable=0;points=[];autosize=1;strokeColor=none;fillColor=none;" parent="1" vertex="1">
          <mxGeometry x="1890" y="520" width="200" height="30" as="geometry" />
        </mxCell>
        <mxCell id="bdnJ1DpABbNqV1TkxQLf-183" style="edgeStyle=orthogonalEdgeStyle;rounded=0;orthogonalLoop=1;jettySize=auto;html=1;curved=0;" parent="1" source="bdnJ1DpABbNqV1TkxQLf-180" target="bdnJ1DpABbNqV1TkxQLf-181" edge="1">
          <mxGeometry relative="1" as="geometry">
            <Array as="points">
              <mxPoint x="2040" y="1040" />
              <mxPoint x="2040" y="1040" />
            </Array>
          </mxGeometry>
        </mxCell>
        <mxCell id="bdnJ1DpABbNqV1TkxQLf-192" style="edgeStyle=orthogonalEdgeStyle;rounded=0;orthogonalLoop=1;jettySize=auto;html=1;curved=0;" parent="1" source="bdnJ1DpABbNqV1TkxQLf-180" target="bdnJ1DpABbNqV1TkxQLf-185" edge="1">
          <mxGeometry relative="1" as="geometry">
            <Array as="points">
              <mxPoint x="2200" y="1170" />
              <mxPoint x="2200" y="1170" />
            </Array>
          </mxGeometry>
        </mxCell>
        <mxCell id="bdnJ1DpABbNqV1TkxQLf-197" style="edgeStyle=orthogonalEdgeStyle;rounded=0;orthogonalLoop=1;jettySize=auto;html=1;curved=0;" parent="1" edge="1">
          <mxGeometry relative="1" as="geometry">
            <mxPoint x="1981.0000000000005" y="1270" as="sourcePoint" />
            <mxPoint x="2481.25" y="1270" as="targetPoint" />
          </mxGeometry>
        </mxCell>
        <mxCell id="bdnJ1DpABbNqV1TkxQLf-180" value="" style="shape=umlLifeline;perimeter=lifelinePerimeter;whiteSpace=wrap;html=1;container=1;dropTarget=0;collapsible=0;recursiveResize=0;outlineConnect=0;portConstraint=eastwest;newEdgeStyle={&quot;curved&quot;:0,&quot;rounded&quot;:0};participant=umlActor;" parent="1" vertex="1">
          <mxGeometry x="1970" y="910" width="20" height="460" as="geometry" />
        </mxCell>
        <mxCell id="bdnJ1DpABbNqV1TkxQLf-181" value="Αρχική&amp;nbsp; σελίδα" style="shape=umlLifeline;perimeter=lifelinePerimeter;whiteSpace=wrap;html=1;container=1;dropTarget=0;collapsible=0;recursiveResize=0;outlineConnect=0;portConstraint=eastwest;newEdgeStyle={&quot;curved&quot;:0,&quot;rounded&quot;:0};fillColor=#1ba1e2;fontColor=#ffffff;strokeColor=#006EAF;" parent="1" vertex="1">
          <mxGeometry x="2068" y="910" width="100" height="460" as="geometry" />
        </mxCell>
        <mxCell id="bdnJ1DpABbNqV1TkxQLf-182" value="" style="html=1;points=[[0,0,0,0,5],[0,1,0,0,-5],[1,0,0,0,5],[1,1,0,0,-5]];perimeter=orthogonalPerimeter;outlineConnect=0;targetShapes=umlLifeline;portConstraint=eastwest;newEdgeStyle={&quot;curved&quot;:0,&quot;rounded&quot;:0};fillColor=#1ba1e2;fontColor=#ffffff;strokeColor=#006EAF;" parent="bdnJ1DpABbNqV1TkxQLf-181" vertex="1">
          <mxGeometry x="45" y="90" width="10" height="160" as="geometry" />
        </mxCell>
        <mxCell id="bdnJ1DpABbNqV1TkxQLf-184" value="shohMenu()" style="text;html=1;align=center;verticalAlign=middle;resizable=0;points=[];autosize=1;strokeColor=none;fillColor=none;" parent="1" vertex="1">
          <mxGeometry x="1995" y="998" width="90" height="30" as="geometry" />
        </mxCell>
        <mxCell id="bdnJ1DpABbNqV1TkxQLf-185" value="Σελίδα καταστημάτων" style="shape=umlLifeline;perimeter=lifelinePerimeter;whiteSpace=wrap;html=1;container=1;dropTarget=0;collapsible=0;recursiveResize=0;outlineConnect=0;portConstraint=eastwest;newEdgeStyle={&quot;curved&quot;:0,&quot;rounded&quot;:0};fillColor=#1ba1e2;fontColor=#ffffff;strokeColor=#006EAF;" parent="1" vertex="1">
          <mxGeometry x="2250" y="910" width="100" height="510" as="geometry" />
        </mxCell>
        <mxCell id="bdnJ1DpABbNqV1TkxQLf-187" value="" style="html=1;points=[[0,0,0,0,5],[0,1,0,0,-5],[1,0,0,0,5],[1,1,0,0,-5]];perimeter=orthogonalPerimeter;outlineConnect=0;targetShapes=umlLifeline;portConstraint=eastwest;newEdgeStyle={&quot;curved&quot;:0,&quot;rounded&quot;:0};fillColor=#1ba1e2;fontColor=#ffffff;strokeColor=#006EAF;" parent="bdnJ1DpABbNqV1TkxQLf-185" vertex="1">
          <mxGeometry x="45" y="153" width="10" height="287" as="geometry" />
        </mxCell>
        <mxCell id="bdnJ1DpABbNqV1TkxQLf-186" value="Προφιλ καταστήματος" style="shape=umlLifeline;perimeter=lifelinePerimeter;whiteSpace=wrap;html=1;container=1;dropTarget=0;collapsible=0;recursiveResize=0;outlineConnect=0;portConstraint=eastwest;newEdgeStyle={&quot;curved&quot;:0,&quot;rounded&quot;:0};fillColor=#1ba1e2;fontColor=#ffffff;strokeColor=#006EAF;" parent="1" vertex="1">
          <mxGeometry x="2430" y="910" width="100" height="570" as="geometry" />
        </mxCell>
        <mxCell id="bdnJ1DpABbNqV1TkxQLf-194" value="" style="html=1;points=[[0,0,0,0,5],[0,1,0,0,-5],[1,0,0,0,5],[1,1,0,0,-5]];perimeter=orthogonalPerimeter;outlineConnect=0;targetShapes=umlLifeline;portConstraint=eastwest;newEdgeStyle={&quot;curved&quot;:0,&quot;rounded&quot;:0};fillColor=#1ba1e2;fontColor=#ffffff;strokeColor=#006EAF;" parent="bdnJ1DpABbNqV1TkxQLf-186" vertex="1">
          <mxGeometry x="45" y="260" width="10" height="310" as="geometry" />
        </mxCell>
        <mxCell id="bdnJ1DpABbNqV1TkxQLf-204" value="" style="html=1;points=[[0,0,0,0,5],[0,1,0,0,-5],[1,0,0,0,5],[1,1,0,0,-5]];perimeter=orthogonalPerimeter;outlineConnect=0;targetShapes=umlLifeline;portConstraint=eastwest;newEdgeStyle={&quot;curved&quot;:0,&quot;rounded&quot;:0};fillColor=#1ba1e2;fontColor=#ffffff;strokeColor=default;strokeWidth=2;perimeterSpacing=0;" parent="bdnJ1DpABbNqV1TkxQLf-186" vertex="1">
          <mxGeometry x="45" y="400" width="10" height="30" as="geometry" />
        </mxCell>
        <mxCell id="bdnJ1DpABbNqV1TkxQLf-208" value="" style="html=1;points=[[0,0,0,0,5],[0,1,0,0,-5],[1,0,0,0,5],[1,1,0,0,-5]];perimeter=orthogonalPerimeter;outlineConnect=0;targetShapes=umlLifeline;portConstraint=eastwest;newEdgeStyle={&quot;curved&quot;:0,&quot;rounded&quot;:0};fillColor=#1ba1e2;fontColor=#ffffff;strokeColor=default;strokeWidth=2;perimeterSpacing=0;" parent="bdnJ1DpABbNqV1TkxQLf-186" vertex="1">
          <mxGeometry x="45" y="530" width="10" height="30" as="geometry" />
        </mxCell>
        <mxCell id="bdnJ1DpABbNqV1TkxQLf-188" style="edgeStyle=orthogonalEdgeStyle;rounded=0;orthogonalLoop=1;jettySize=auto;html=1;curved=0;" parent="1" source="bdnJ1DpABbNqV1TkxQLf-182" target="bdnJ1DpABbNqV1TkxQLf-187" edge="1">
          <mxGeometry relative="1" as="geometry">
            <Array as="points">
              <mxPoint x="2170" y="1100" />
              <mxPoint x="2170" y="1100" />
            </Array>
          </mxGeometry>
        </mxCell>
        <mxCell id="bdnJ1DpABbNqV1TkxQLf-189" value="showShops()" style="text;html=1;align=center;verticalAlign=middle;resizable=0;points=[];autosize=1;strokeColor=none;fillColor=none;" parent="1" vertex="1">
          <mxGeometry x="2160" y="1070" width="90" height="30" as="geometry" />
        </mxCell>
        <mxCell id="bdnJ1DpABbNqV1TkxQLf-190" value="Πελάτης" style="text;html=1;align=center;verticalAlign=middle;resizable=0;points=[];autosize=1;strokeColor=none;fillColor=none;" parent="1" vertex="1">
          <mxGeometry x="1945" y="880" width="70" height="30" as="geometry" />
        </mxCell>
        <mxCell id="bdnJ1DpABbNqV1TkxQLf-193" value="chooseShop()" style="text;html=1;align=center;verticalAlign=middle;resizable=0;points=[];autosize=1;strokeColor=none;fillColor=none;" parent="1" vertex="1">
          <mxGeometry x="2145" y="1139" width="100" height="30" as="geometry" />
        </mxCell>
        <mxCell id="bdnJ1DpABbNqV1TkxQLf-196" value="&amp;nbsp;showShopProfile()" style="html=1;verticalAlign=bottom;endArrow=block;curved=0;rounded=0;" parent="1" target="bdnJ1DpABbNqV1TkxQLf-186" edge="1">
          <mxGeometry width="80" relative="1" as="geometry">
            <mxPoint x="2310" y="1217" as="sourcePoint" />
            <mxPoint x="2390" y="1217.39" as="targetPoint" />
          </mxGeometry>
        </mxCell>
        <mxCell id="bdnJ1DpABbNqV1TkxQLf-198" value="addFavorite()" style="text;html=1;align=center;verticalAlign=middle;resizable=0;points=[];autosize=1;strokeColor=none;fillColor=none;" parent="1" vertex="1">
          <mxGeometry x="2168" y="1240" width="90" height="30" as="geometry" />
        </mxCell>
        <mxCell id="bdnJ1DpABbNqV1TkxQLf-200" value="confirmationMessage()" style="html=1;align=left;spacingLeft=2;endArrow=block;rounded=0;edgeStyle=orthogonalEdgeStyle;curved=0;rounded=0;" parent="1" edge="1">
          <mxGeometry relative="1" as="geometry">
            <mxPoint x="2481" y="1290" as="sourcePoint" />
            <Array as="points">
              <mxPoint x="2511" y="1320" />
            </Array>
            <mxPoint x="2486.0000000000005" y="1320" as="targetPoint" />
          </mxGeometry>
        </mxCell>
        <mxCell id="bdnJ1DpABbNqV1TkxQLf-202" value="return()" style="html=1;verticalAlign=bottom;endArrow=open;dashed=1;endSize=8;curved=0;rounded=0;strokeColor=#FA0000;" parent="1" edge="1">
          <mxGeometry relative="1" as="geometry">
            <mxPoint x="2475" y="1340" as="sourcePoint" />
            <mxPoint x="2310" y="1340" as="targetPoint" />
          </mxGeometry>
        </mxCell>
        <mxCell id="bdnJ1DpABbNqV1TkxQLf-203" value="favouriteListUpdate()" style="html=1;align=left;spacingLeft=2;endArrow=block;rounded=0;edgeStyle=orthogonalEdgeStyle;curved=0;rounded=0;" parent="1" edge="1">
          <mxGeometry relative="1" as="geometry">
            <mxPoint x="2481" y="1370" as="sourcePoint" />
            <Array as="points">
              <mxPoint x="2511" y="1400" />
            </Array>
            <mxPoint x="2486.0000000000005" y="1400" as="targetPoint" />
          </mxGeometry>
        </mxCell>
        <mxCell id="bdnJ1DpABbNqV1TkxQLf-207" value="successMessage()" style="html=1;align=left;spacingLeft=2;endArrow=block;rounded=0;edgeStyle=orthogonalEdgeStyle;curved=0;rounded=0;" parent="1" edge="1">
          <mxGeometry relative="1" as="geometry">
            <mxPoint x="2481" y="1425" as="sourcePoint" />
            <Array as="points">
              <mxPoint x="2511" y="1455" />
            </Array>
            <mxPoint x="2486.0000000000005" y="1455" as="targetPoint" />
          </mxGeometry>
        </mxCell>
        <mxCell id="bdnJ1DpABbNqV1TkxQLf-209" value="loop" style="shape=umlFrame;whiteSpace=wrap;html=1;pointerEvents=0;" parent="1" vertex="1">
          <mxGeometry x="2300" y="1280" width="330" height="70" as="geometry" />
        </mxCell>
      </root>
    </mxGraphModel>
  </diagram>
</mxfile>
